<svg width="217" height="41" viewBox="0 0 217 41" fill="none" xmlns="http://www.w3.org/2000/svg">
<path d="M0 20.5H16.2851C21.0522 20.5 24.9167 24.3645 24.9167 29.1316V29.1316C24.9167 33.8987 21.0522 37.7632 16.2851 37.7632H0V20.5Z" fill="#0A2640"/>
<path d="M0 5.39502H10.8597C14.435 5.39502 17.3333 8.29339 17.3333 11.8687V11.8687C17.3333 15.444 14.435 18.3424 10.8596 18.3424H0V5.39502Z" fill="#0A2640"/>
<path d="M36.36 39V4.44H42.216L58.248 28.8V4.44H64.104V39H58.248L42.216 14.64V39H36.36ZM82.5971 39.72C79.9731 39.72 77.6691 39.152 75.6851 38.016C73.7011 36.88 72.1491 35.304 71.0291 33.288C69.9251 31.272 69.3731 28.952 69.3731 26.328C69.3731 23.496 69.9171 21.04 71.0051 18.96C72.0931 16.864 73.6051 15.24 75.5411 14.088C77.4771 12.936 79.7171 12.36 82.2611 12.36C84.9491 12.36 87.2291 12.992 89.1011 14.256C90.9891 15.504 92.3891 17.272 93.3011 19.56C94.2131 21.848 94.5571 24.544 94.3331 27.648H88.5971V25.536C88.5811 22.72 88.0851 20.664 87.1091 19.368C86.1331 18.072 84.5971 17.424 82.5011 17.424C80.1331 17.424 78.3731 18.16 77.2211 19.632C76.0691 21.088 75.4931 23.224 75.4931 26.04C75.4931 28.664 76.0691 30.696 77.2211 32.136C78.3731 33.576 80.0531 34.296 82.2611 34.296C83.6851 34.296 84.9091 33.984 85.9331 33.36C86.9731 32.72 87.7731 31.8 88.3331 30.6L94.0451 32.328C93.0531 34.664 91.5171 36.48 89.4371 37.776C87.3731 39.072 85.0931 39.72 82.5971 39.72ZM73.6691 27.648V23.28H91.5011V27.648H73.6691ZM104.271 39L96.3506 13.032L102.015 13.08L107.079 29.712L112.215 13.08H117.087L122.199 29.712L127.287 13.08H132.951L125.031 39H120.519L114.639 21.168L108.783 39H104.271ZM146.352 39.72C143.152 39.72 140.552 39 138.552 37.56C136.552 36.12 135.336 34.096 134.904 31.488L140.808 30.576C141.112 31.856 141.784 32.864 142.824 33.6C143.864 34.336 145.176 34.704 146.76 34.704C148.152 34.704 149.224 34.432 149.976 33.888C150.744 33.328 151.128 32.568 151.128 31.608C151.128 31.016 150.984 30.544 150.696 30.192C150.424 29.824 149.816 29.472 148.872 29.136C147.928 28.8 146.48 28.376 144.528 27.864C142.352 27.288 140.624 26.672 139.344 26.016C138.064 25.344 137.144 24.552 136.584 23.64C136.024 22.728 135.744 21.624 135.744 20.328C135.744 18.712 136.168 17.304 137.016 16.104C137.864 14.904 139.048 13.984 140.568 13.344C142.088 12.688 143.88 12.36 145.944 12.36C147.96 12.36 149.744 12.672 151.296 13.296C152.864 13.92 154.128 14.808 155.088 15.96C156.048 17.112 156.64 18.464 156.864 20.016L150.96 21.072C150.816 19.968 150.312 19.096 149.448 18.456C148.6 17.816 147.464 17.456 146.04 17.376C144.68 17.296 143.584 17.504 142.752 18C141.92 18.48 141.504 19.16 141.504 20.04C141.504 20.536 141.672 20.96 142.008 21.312C142.344 21.664 143.016 22.016 144.024 22.368C145.048 22.72 146.568 23.152 148.584 23.664C150.648 24.192 152.296 24.8 153.528 25.488C154.776 26.16 155.672 26.968 156.216 27.912C156.776 28.856 157.056 30 157.056 31.344C157.056 33.952 156.104 36 154.2 37.488C152.312 38.976 149.696 39.72 146.352 39.72ZM176.665 39V33.288H161.353V27.888L172.417 4.44H179.017L167.953 27.888H176.665V18.888H182.521V27.888H185.761V33.288H182.521V39H176.665ZM201.764 39.72C200.004 39.72 198.364 39.36 196.844 38.64C195.324 37.904 194.012 36.896 192.908 35.616C191.82 34.336 191.036 32.848 190.556 31.152L196.124 29.664C196.348 30.592 196.756 31.392 197.348 32.064C197.956 32.736 198.66 33.256 199.46 33.624C200.276 33.992 201.116 34.176 201.98 34.176C203.1 34.176 204.124 33.904 205.052 33.36C205.98 32.816 206.716 32.088 207.26 31.176C207.804 30.248 208.076 29.224 208.076 28.104C208.076 26.984 207.796 25.968 207.236 25.056C206.692 24.128 205.956 23.4 205.028 22.872C204.1 22.328 203.084 22.056 201.98 22.056C200.652 22.056 199.548 22.296 198.668 22.776C197.804 23.256 197.14 23.768 196.676 24.312L191.732 22.728L192.788 4.44H211.556V9.864H195.884L198.044 7.824L197.276 20.544L196.22 19.248C197.116 18.432 198.156 17.824 199.34 17.424C200.524 17.024 201.668 16.824 202.772 16.824C204.932 16.824 206.844 17.32 208.508 18.312C210.188 19.288 211.5 20.624 212.444 22.32C213.404 24.016 213.884 25.944 213.884 28.104C213.884 30.264 213.324 32.224 212.204 33.984C211.084 35.728 209.604 37.12 207.764 38.16C205.94 39.2 203.94 39.72 201.764 39.72Z" fill="#0A2640"/>
</svg>
